Coordinates
version=1
nRows=12
nColumns=24
inDegrees=yes

Units are S.I. units (second, meters, Newtons, ...)
Angles are in degrees.

endheader
time	pelvis_tilt	pelvis_list	pelvis_rotation	pelvis_tx	pelvis_ty	pelvis_tz	hip_flexion_r	hip_adduction_r	hip_rotation_r	knee_angle_r	ankle_angle_r	subtalar_angle_r	mtp_angle_r	hip_flexion_l	hip_adduction_l	hip_rotation_l	knee_angle_l	ankle_angle_l	subtalar_angle_l	mtp_angle_l	lumbar_extension	lumbar_bending	lumbar_rotation
      0.97500000	      2.96036195	     -4.11531200	     -0.99406481	     -0.33220624	      1.07911685	      0.35514306	      0.79868448	      9.95338941	     -8.83478814	     -5.70747600	     -0.82100259	     -6.01334712	      4.44426321	      9.95315892	     -6.73253330	     -1.11072484	    -60.02271639	      0.75796853	      1.03201426	     17.51381101	      4.03765768	      8.46463466	      0.12038291
      0.97916667	      2.95330950	     -4.06220424	     -1.07323034	     -0.32753225	      1.07949677	      0.35547547	      0.40415515	      9.93543740	     -8.66032970	     -5.46948974	     -0.75274294	     -6.01972778	      4.44302335	     10.43306537	     -6.59908553	     -0.93715333	    -59.60913390	      1.30166335	      0.57950549	     17.34812222	      4.04159714	      8.38425324	      0.13556578
      0.98333333	      2.93681411	     -3.99759371	     -1.22731654	     -0.32294487	      1.07986135	      0.35584534	      0.03872527	      9.89749160	     -8.46158769	     -5.27126268	     -0.70799092	     -6.16814002	      4.43576683	     10.89899120	     -6.45856040	     -0.85434056	    -59.14445468	      1.80707871	     -0.06219129	     17.04625609	      3.98728425	      8.33647613	      0.17897056
      0.98750000	      2.91698832	     -3.94612508	     -1.32065680	     -0.31833148	      1.08017906	      0.35624949	     -0.34766418	      9.88729643	     -8.19433322	     -5.01208189	     -0.68650353	     -6.33333802	      4.42580824	     11.37250879	     -6.33706572	     -0.71487045	    -58.64244418	      2.19687644	     -0.66896775	     16.72078580	      3.97867594	      8.24588191	      0.27525231
      0.99166667	      2.90231844	     -3.89222606	     -1.41915243	     -0.31375723	      1.08047855	      0.35665911	     -0.73476129	      9.87248048	     -7.93049806	     -4.75959582	     -0.67079091	     -6.52035385	      4.41283331	     11.83035946	     -6.21390214	     -0.58553113	    -58.09869565	      2.55215217	     -1.27394803	     16.37546862	      3.94654281	      8.16807072	      0.38723504
      0.99583333	      2.83577361	     -3.86581054	     -1.53223942	     -0.30932019	      1.08064680	      0.35716225	     -1.06635196	      9.89774829	     -7.48814813	     -4.49120707	     -0.72873850	     -6.89093333	      4.37324718	     12.35313860	     -6.13792113	     -0.48261056	    -57.53328505	      2.64654459	     -2.05179962	     15.46067669	      3.83883044	      8.15968262	      0.63140023
      1.00000000	      2.77881435	     -3.78322832	     -1.70859876	     -0.30466923	      1.08087036	      0.35782258	     -1.43324521	      9.86529065	     -6.99150446	     -4.19970660	     -0.84427308	     -7.58356102	      4.06862361	     12.80140565	     -6.01958456	     -0.46426074	    -56.86647455	      2.70681816	     -2.82040212	      9.03434373	      3.86903929	      7.95917446	      1.33678752
      1.00416667	      2.78898105	     -3.74877544	     -1.70579399	     -0.30011953	      1.08110234	      0.35802542	     -1.84106126	      9.86048337	     -6.89726756	     -3.94019483	     -0.74893583	     -7.41653183	      4.06490693	     13.22443548	     -5.89409753	     -0.23123620	    -56.24360035	      3.34731449	     -3.02748200	      8.93156329	      3.91489146	      8.01332939	      1.24020122
      1.00833333	      2.75293411	     -3.68807089	     -1.77307691	     -0.29559595	      1.08125787	      0.35829655	     -2.18142208	      9.82459660	     -6.78172388	     -3.72651283	     -0.64782715	     -7.39843806	      4.05710283	     13.66710678	     -5.75276221	     -0.07603352	    -55.55174475	      3.76422287	     -3.42601544	      8.80654240	      3.89296826	      7.88929504	      1.19383835
      1.01250000	      2.71950112	     -3.63452933	     -1.83178023	     -0.29102288	      1.08139721	      0.35858152	     -2.54129879	      9.79777416	     -6.60342443	     -3.48347473	     -0.56591526	     -7.43964737	      4.04715185	     14.09258282	     -5.62339104	      0.06528023	    -54.81773453	      4.07010753	     -3.94031996	      8.67286785	      3.90733657	      7.79283993	      1.18344436
      1.01666667	      2.68247345	     -3.57657541	     -1.90428836	     -0.28648747	      1.08149972	      0.35889756	     -2.89245065	      9.76636065	     -6.40553064	     -3.24632546	     -0.49363768	     -7.54037634	      4.03372802	     14.50703910	     -5.49555271	      0.18449109	    -54.03688667	      4.31810052	     -4.55579515	      8.51729245	      3.91898199	      7.69320945	      1.20004031
      1.02083333	      2.62904667	     -3.52002443	     -1.97559326	     -0.28195812	      1.08155056	      0.35920551	     -3.22594234	      9.73645074	     -6.19456338	     -3.00785599	     -0.43311427	     -7.67451759	      4.01747540	     14.92943008	     -5.37077233	      0.29909329	    -53.22033178	      4.49562088	     -5.18596411	      8.34675296	      3.93779052	      7.60109149	      1.24052854
